<svg width="106" height="28" viewBox="0 0 106 28" fill="none" xmlns="http://www.w3.org/2000/svg">
<path d="M26.1172 9.32031L28.8945 13.9375L31.707 9.32031H34.25L30.1016 15.5781L34.3789 22H31.8711L28.9414 17.2422L26.0117 22H23.4922L27.7578 15.5781L23.6211 9.32031H26.1172ZM47.7266 20.1602V22H38.6914V20.1602H47.7266ZM39.1484 4.9375V22H36.8867V4.9375H39.1484ZM46.5312 12.2734V14.1133H38.6914V12.2734H46.5312ZM47.6094 4.9375V6.78906H38.6914V4.9375H47.6094ZM57.0664 4.9375V22H54.8398V4.9375H57.0664ZM62.5508 4.9375V6.78906H49.3672V4.9375H62.5508ZM76.2266 12.2734V14.1133H66.9922V12.2734H76.2266ZM67.3438 4.9375V22H65.082V4.9375H67.3438ZM78.1953 4.9375V22H75.9453V4.9375H78.1953ZM84.8164 12.4023H86.3633C87.1211 12.4023 87.7461 12.2773 88.2383 12.0273C88.7383 11.7695 89.1094 11.4219 89.3516 10.9844C89.6016 10.5391 89.7266 10.0391 89.7266 9.48438C89.7266 8.82812 89.6172 8.27734 89.3984 7.83203C89.1797 7.38672 88.8516 7.05078 88.4141 6.82422C87.9766 6.59766 87.4219 6.48438 86.75 6.48438C86.1406 6.48438 85.6016 6.60547 85.1328 6.84766C84.6719 7.08203 84.3086 7.41797 84.043 7.85547C83.7852 8.29297 83.6562 8.80859 83.6562 9.40234H81.4883C81.4883 8.53516 81.707 7.74609 82.1445 7.03516C82.582 6.32422 83.1953 5.75781 83.9844 5.33594C84.7812 4.91406 85.7031 4.70312 86.75 4.70312C87.7812 4.70312 88.6836 4.88672 89.457 5.25391C90.2305 5.61328 90.832 6.15234 91.2617 6.87109C91.6914 7.58203 91.9062 8.46875 91.9062 9.53125C91.9062 9.96094 91.8047 10.4219 91.6016 10.9141C91.4062 11.3984 91.0977 11.8516 90.6758 12.2734C90.2617 12.6953 89.7227 13.043 89.0586 13.3164C88.3945 13.582 87.5977 13.7148 86.668 13.7148H84.8164V12.4023ZM84.8164 14.1836V12.8828H86.668C87.7539 12.8828 88.6523 13.0117 89.3633 13.2695C90.0742 13.5273 90.6328 13.8711 91.0391 14.3008C91.4531 14.7305 91.7422 15.2031 91.9062 15.7188C92.0781 16.2266 92.1641 16.7344 92.1641 17.2422C92.1641 18.0391 92.0273 18.7461 91.7539 19.3633C91.4883 19.9805 91.1094 20.5039 90.6172 20.9336C90.1328 21.3633 89.5625 21.6875 88.9062 21.9062C88.25 22.125 87.5352 22.2344 86.7617 22.2344C86.0195 22.2344 85.3203 22.1289 84.6641 21.918C84.0156 21.707 83.4414 21.4023 82.9414 21.0039C82.4414 20.5977 82.0508 20.1016 81.7695 19.5156C81.4883 18.9219 81.3477 18.2461 81.3477 17.4883H83.5156C83.5156 18.082 83.6445 18.6016 83.9023 19.0469C84.168 19.4922 84.543 19.8398 85.0273 20.0898C85.5195 20.332 86.0977 20.4531 86.7617 20.4531C87.4258 20.4531 87.9961 20.3398 88.4727 20.1133C88.957 19.8789 89.3281 19.5273 89.5859 19.0586C89.8516 18.5898 89.9844 18 89.9844 17.2891C89.9844 16.5781 89.8359 15.9961 89.5391 15.543C89.2422 15.082 88.8203 14.7422 88.2734 14.5234C87.7344 14.2969 87.0977 14.1836 86.3633 14.1836H84.8164ZM96.8516 9.32031L99.6289 13.9375L102.441 9.32031H104.984L100.836 15.5781L105.113 22H102.605L99.6758 17.2422L96.7461 22H94.2266L98.4922 15.5781L94.3555 9.32031H96.8516Z" fill="white"/>
<path d="M1.41 10.41L6 5.83L10.59 10.41L12 9L6 3L0 9L1.41 10.41Z" fill="white"/>
<path d="M1.41 17.41L6 12.83L10.59 17.41L12 16L6 10L0 16L1.41 17.41Z" fill="#CAC9CD"/>
<path d="M1.41 24.41L6 19.83L10.59 24.41L12 23L6 17L0 23L1.41 24.41Z" fill="#9B9A9C"/>
</svg>
