<svg width="105" height="28" viewBox="0 0 105 28" fill="none" xmlns="http://www.w3.org/2000/svg">
<path d="M26.1172 9.32031L28.8945 13.9375L31.707 9.32031H34.25L30.1016 15.5781L34.3789 22H31.8711L28.9414 17.2422L26.0117 22H23.4922L27.7578 15.5781L23.6211 9.32031H26.1172ZM42.9688 14.0195H38.6445L38.6211 12.2031H42.5469C43.1953 12.2031 43.7617 12.0938 44.2461 11.875C44.7305 11.6562 45.1055 11.3438 45.3711 10.9375C45.6445 10.5234 45.7812 10.0312 45.7812 9.46094C45.7812 8.83594 45.6602 8.32812 45.418 7.9375C45.1836 7.53906 44.8203 7.25 44.3281 7.07031C43.8438 6.88281 43.2266 6.78906 42.4766 6.78906H39.1484V22H36.8867V4.9375H42.4766C43.3516 4.9375 44.1328 5.02734 44.8203 5.20703C45.5078 5.37891 46.0898 5.65234 46.5664 6.02734C47.0508 6.39453 47.418 6.86328 47.668 7.43359C47.918 8.00391 48.043 8.6875 48.043 9.48438C48.043 10.1875 47.8633 10.8242 47.5039 11.3945C47.1445 11.957 46.6445 12.418 46.0039 12.7773C45.3711 13.1367 44.6289 13.3672 43.7773 13.4688L42.9688 14.0195ZM42.8633 22H37.7539L39.0312 20.1602H42.8633C43.582 20.1602 44.1914 20.0352 44.6914 19.7852C45.1992 19.5352 45.5859 19.1836 45.8516 18.7305C46.1172 18.2695 46.25 17.7266 46.25 17.1016C46.25 16.4688 46.1367 15.9219 45.9102 15.4609C45.6836 15 45.3281 14.6445 44.8438 14.3945C44.3594 14.1445 43.7344 14.0195 42.9688 14.0195H39.7461L39.7695 12.2031H44.1758L44.6562 12.8594C45.4766 12.9297 46.1719 13.1641 46.7422 13.5625C47.3125 13.9531 47.7461 14.4531 48.043 15.0625C48.3477 15.6719 48.5 16.3438 48.5 17.0781C48.5 18.1406 48.2656 19.0391 47.7969 19.7734C47.3359 20.5 46.6836 21.0547 45.8398 21.4375C44.9961 21.8125 44.0039 22 42.8633 22ZM57.8164 4.9375V22H55.5898V4.9375H57.8164ZM63.3008 4.9375V6.78906H50.1172V4.9375H63.3008ZM75.8047 16.5742H78.0547C77.9375 17.6523 77.6289 18.6172 77.1289 19.4688C76.6289 20.3203 75.9219 20.9961 75.0078 21.4961C74.0938 21.9883 72.9531 22.2344 71.5859 22.2344C70.5859 22.2344 69.6758 22.0469 68.8555 21.6719C68.043 21.2969 67.3438 20.7656 66.7578 20.0781C66.1719 19.3828 65.7188 18.5508 65.3984 17.582C65.0859 16.6055 64.9297 15.5195 64.9297 14.3242V12.625C64.9297 11.4297 65.0859 10.3477 65.3984 9.37891C65.7188 8.40234 66.1758 7.56641 66.7695 6.87109C67.3711 6.17578 68.0938 5.64062 68.9375 5.26562C69.7812 4.89062 70.7305 4.70312 71.7852 4.70312C73.0742 4.70312 74.1641 4.94531 75.0547 5.42969C75.9453 5.91406 76.6367 6.58594 77.1289 7.44531C77.6289 8.29688 77.9375 9.28516 78.0547 10.4102H75.8047C75.6953 9.61328 75.4922 8.92969 75.1953 8.35938C74.8984 7.78125 74.4766 7.33594 73.9297 7.02344C73.3828 6.71094 72.668 6.55469 71.7852 6.55469C71.0273 6.55469 70.3594 6.69922 69.7812 6.98828C69.2109 7.27734 68.7305 7.6875 68.3398 8.21875C67.957 8.75 67.668 9.38672 67.4727 10.1289C67.2773 10.8711 67.1797 11.6953 67.1797 12.6016V14.3242C67.1797 15.1602 67.2656 15.9453 67.4375 16.6797C67.6172 17.4141 67.8867 18.0586 68.2461 18.6133C68.6055 19.168 69.0625 19.6055 69.6172 19.9258C70.1719 20.2383 70.8281 20.3945 71.5859 20.3945C72.5469 20.3945 73.3125 20.2422 73.8828 19.9375C74.4531 19.6328 74.8828 19.1953 75.1719 18.625C75.4688 18.0547 75.6797 17.3711 75.8047 16.5742ZM83.7383 12.4023H85.2852C86.043 12.4023 86.668 12.2773 87.1602 12.0273C87.6602 11.7695 88.0312 11.4219 88.2734 10.9844C88.5234 10.5391 88.6484 10.0391 88.6484 9.48438C88.6484 8.82812 88.5391 8.27734 88.3203 7.83203C88.1016 7.38672 87.7734 7.05078 87.3359 6.82422C86.8984 6.59766 86.3438 6.48438 85.6719 6.48438C85.0625 6.48438 84.5234 6.60547 84.0547 6.84766C83.5938 7.08203 83.2305 7.41797 82.9648 7.85547C82.707 8.29297 82.5781 8.80859 82.5781 9.40234H80.4102C80.4102 8.53516 80.6289 7.74609 81.0664 7.03516C81.5039 6.32422 82.1172 5.75781 82.9062 5.33594C83.7031 4.91406 84.625 4.70312 85.6719 4.70312C86.7031 4.70312 87.6055 4.88672 88.3789 5.25391C89.1523 5.61328 89.7539 6.15234 90.1836 6.87109C90.6133 7.58203 90.8281 8.46875 90.8281 9.53125C90.8281 9.96094 90.7266 10.4219 90.5234 10.9141C90.3281 11.3984 90.0195 11.8516 89.5977 12.2734C89.1836 12.6953 88.6445 13.043 87.9805 13.3164C87.3164 13.582 86.5195 13.7148 85.5898 13.7148H83.7383V12.4023ZM83.7383 14.1836V12.8828H85.5898C86.6758 12.8828 87.5742 13.0117 88.2852 13.2695C88.9961 13.5273 89.5547 13.8711 89.9609 14.3008C90.375 14.7305 90.6641 15.2031 90.8281 15.7188C91 16.2266 91.0859 16.7344 91.0859 17.2422C91.0859 18.0391 90.9492 18.7461 90.6758 19.3633C90.4102 19.9805 90.0312 20.5039 89.5391 20.9336C89.0547 21.3633 88.4844 21.6875 87.8281 21.9062C87.1719 22.125 86.457 22.2344 85.6836 22.2344C84.9414 22.2344 84.2422 22.1289 83.5859 21.918C82.9375 21.707 82.3633 21.4023 81.8633 21.0039C81.3633 20.5977 80.9727 20.1016 80.6914 19.5156C80.4102 18.9219 80.2695 18.2461 80.2695 17.4883H82.4375C82.4375 18.082 82.5664 18.6016 82.8242 19.0469C83.0898 19.4922 83.4648 19.8398 83.9492 20.0898C84.4414 20.332 85.0195 20.4531 85.6836 20.4531C86.3477 20.4531 86.918 20.3398 87.3945 20.1133C87.8789 19.8789 88.25 19.5273 88.5078 19.0586C88.7734 18.5898 88.9062 18 88.9062 17.2891C88.9062 16.5781 88.7578 15.9961 88.4609 15.543C88.1641 15.082 87.7422 14.7422 87.1953 14.5234C86.6562 14.2969 86.0195 14.1836 85.2852 14.1836H83.7383ZM95.7734 9.32031L98.5508 13.9375L101.363 9.32031H103.906L99.7578 15.5781L104.035 22H101.527L98.5977 17.2422L95.668 22H93.1484L97.4141 15.5781L93.2773 9.32031H95.7734Z" fill="white"/>
<path d="M1.41 10.41L6 5.83L10.59 10.41L12 9L6 3L0 9L1.41 10.41Z" fill="white"/>
<path d="M1.41 17.41L6 12.83L10.59 17.41L12 16L6 10L0 16L1.41 17.41Z" fill="#CAC9CD"/>
<path d="M1.41 24.41L6 19.83L10.59 24.41L12 23L6 17L0 23L1.41 24.41Z" fill="#9B9A9C"/>
</svg>
