<svg width="300" height="100" viewBox="0 0 300 100" fill="none" xmlns="http://www.w3.org/2000/svg">
<path d="M250 100C277.709 100 300 77.7085 300 50C300 22.2915 277.709 0 250 0C222.292 0 200 22.2915 200 50C200 77.7085 222.292 100 250 100Z" fill="#2775CA"/>
<path d="M263.75 57.9165C263.75 50.625 259.375 48.125 250.625 47.0835C244.375 46.25 243.125 44.5835 243.125 41.6665C243.125 38.7495 245.208 36.875 249.375 36.875C253.125 36.875 255.208 38.125 256.25 41.25C256.458 41.875 257.083 42.2915 257.708 42.2915H261.041C261.875 42.2915 262.5 41.6665 262.5 40.8335V40.625C261.666 36.0415 257.916 32.5 253.125 32.0835V27.0835C253.125 26.25 252.5 25.625 251.458 25.4165H248.333C247.5 25.4165 246.875 26.0415 246.666 27.0835V31.875C240.416 32.7085 236.458 36.875 236.458 42.0835C236.458 48.9585 240.625 51.6665 249.375 52.7085C255.208 53.75 257.083 55 257.083 58.3335C257.083 61.667 254.166 63.9585 250.208 63.9585C244.791 63.9585 242.916 61.6665 242.291 58.5415C242.083 57.7085 241.458 57.2915 240.833 57.2915H237.291C236.458 57.2915 235.833 57.9165 235.833 58.75V58.9585C236.666 64.1665 240 67.9165 246.875 68.9585V73.9585C246.875 74.7915 247.5 75.4165 248.541 75.625H251.666C252.5 75.625 253.125 75 253.333 73.9585V68.9585C259.583 67.9165 263.75 63.5415 263.75 57.9165V57.9165Z" fill="white"/>
<path d="M239.375 79.7916C223.125 73.9586 214.791 55.8335 220.833 39.7915C223.958 31.0415 230.833 24.375 239.375 21.25C240.208 20.8335 240.625 20.2085 240.625 19.1665V16.25C240.625 15.4165 240.208 14.7915 239.375 14.5835C239.166 14.5835 238.75 14.5835 238.541 14.7915C218.75 21.0415 207.916 42.0835 214.166 61.8751C217.916 73.5416 226.875 82.5001 238.541 86.2501C239.375 86.6666 240.208 86.2501 240.416 85.4166C240.625 85.2086 240.625 85.0001 240.625 84.5836V81.6666C240.625 81.0416 240 80.2086 239.375 79.7916ZM261.458 14.7915C260.625 14.375 259.791 14.7915 259.583 15.625C259.375 15.8335 259.375 16.0415 259.375 16.4585V19.375C259.375 20.2085 260 21.0415 260.625 21.4585C276.875 27.2915 285.208 45.4165 279.166 61.4586C276.041 70.2086 269.166 76.8751 260.625 80.0001C259.791 80.4166 259.375 81.0416 259.375 82.0836V85.0001C259.375 85.8336 259.791 86.4586 260.625 86.6666C260.833 86.6666 261.25 86.6666 261.458 86.4586C281.25 80.2086 292.083 59.1665 285.833 39.375C282.083 27.5 272.916 18.5415 261.458 14.7915V14.7915Z" fill="white"/>
<path d="M50 0C77.6168 0 100 22.3877 100 50C100 77.6168 77.6168 100 50 100C22.3877 100 0 77.6145 0 50C0 22.3877 22.3877 0 50 0Z" fill="#F5AC37"/>
<path d="M51.8428 53.5303H70.842C71.247 53.5303 71.4383 53.5303 71.4675 52.9993C71.6228 51.0665 71.6228 49.1225 71.4675 47.1875C71.4675 46.8117 71.2808 46.6565 70.8735 46.6565H33.0619C32.5939 46.6565 32.4679 46.8117 32.4679 47.2505V52.8125C32.4679 53.5303 32.4679 53.5303 33.2171 53.5303H51.8428V53.5303ZM69.3457 40.1561C69.3997 40.0144 69.3997 39.8591 69.3457 39.7196C69.0285 39.0289 68.6527 38.3696 68.2162 37.7509C67.5592 36.6934 66.7852 35.7191 65.9032 34.8438C65.4869 34.3151 65.0054 33.8403 64.4654 33.4376C61.7609 31.1358 58.5456 29.5068 55.0896 28.6878C53.3458 28.2963 51.5638 28.1095 49.7773 28.1253H32.9966C32.5286 28.1253 32.4656 28.312 32.4656 28.7193V39.8119C32.4656 40.2799 32.4656 40.4059 33.0596 40.4059H69.1207C69.1207 40.4059 69.4335 40.3429 69.4965 40.1561H69.3435H69.3457ZM69.3457 60.0306C68.8147 59.9721 68.2792 59.9721 67.7482 60.0306H33.0934C32.6254 60.0306 32.4679 60.0306 32.4679 60.6561V71.5012C32.4679 72.0007 32.4679 72.1267 33.0934 72.1267H49.0933C49.8583 72.1852 50.6233 72.1312 51.3726 71.9715C53.6946 71.805 55.9784 71.301 58.1564 70.4707C58.9484 70.1962 59.7134 69.8384 60.4357 69.4087H60.6539C64.4047 67.4579 67.4512 64.3934 69.3727 60.6313C69.3727 60.6313 69.591 60.1588 69.3457 60.0351V60.0306ZM26.1881 77.7495V77.5628V70.2817V67.8134V60.4693C26.1881 60.0621 26.1881 60.0013 25.6885 60.0013H18.907C18.5312 60.0013 18.376 60.0013 18.376 59.5018V53.564H25.6255C26.0306 53.564 26.1881 53.564 26.1881 53.033V47.1582C26.1881 46.7825 26.1881 46.6902 25.6885 46.6902H18.907C18.5312 46.6902 18.376 46.6902 18.376 46.1907V40.6916C18.376 40.3474 18.376 40.2551 18.8755 40.2551H25.594C26.0621 40.2551 26.1881 40.2551 26.1881 39.6611V22.8175C26.1881 22.318 26.1881 22.192 26.8136 22.192H50.2498C51.9508 22.2595 53.6406 22.4462 55.3123 22.7545C58.7571 23.3912 62.0669 24.622 65.0932 26.3792C67.1002 27.5605 68.9475 28.987 70.5922 30.6295C71.8298 31.9143 72.9458 33.3048 73.9358 34.7853C74.919 36.2861 75.7358 37.8904 76.3771 39.5666C76.4558 40.0031 76.8743 40.2979 77.3108 40.2236H82.9044C83.6221 40.2236 83.6221 40.2236 83.6536 40.9121V46.0377C83.6536 46.5372 83.4669 46.6632 82.9651 46.6632H78.6518C78.2153 46.6632 78.0893 46.6632 78.1208 47.2257C78.2918 49.1292 78.2918 51.0395 78.1208 52.943C78.1208 53.474 78.1208 53.537 78.7171 53.537H83.6514C83.8696 53.8183 83.6514 54.0995 83.6514 54.383C83.6829 54.7453 83.6829 55.112 83.6514 55.4743V59.2566C83.6514 59.7876 83.4961 59.9451 83.0259 59.9451H77.1196C76.7078 59.8663 76.3073 60.1296 76.2128 60.5391C74.8065 64.1954 72.5565 67.4737 69.6495 70.1017C68.5875 71.0579 67.4715 71.958 66.306 72.7882C65.0549 73.5082 63.8377 74.2575 62.5552 74.8515C60.1949 75.9135 57.7199 76.6965 55.1796 77.1938C52.7676 77.6258 50.3218 77.8215 47.867 77.7878H26.1791V77.7563L26.1881 77.7495Z" fill="#FEFEFD"/>
<path d="M164.111 32.2222H186.333V10" stroke="white" stroke-width="6" stroke-linecap="round" stroke-linejoin="round"/>
<path d="M186.333 32.2222C173.726 17.4074 161.133 10 148.556 10C135.978 10 124.867 14.4444 115.222 23.3333" stroke="white" stroke-width="6" stroke-linecap="round" stroke-linejoin="round"/>
<path d="M135.222 67.7778H113V90" stroke="white" stroke-width="6" stroke-linecap="round" stroke-linejoin="round"/>
<path d="M113 67.7778C125.607 82.5926 138.2 90 150.778 90C163.356 90 174.467 85.5556 184.111 76.6667" stroke="white" stroke-width="6" stroke-linecap="round" stroke-linejoin="round"/>
</svg>
