<svg width="300" height="100" viewBox="0 0 300 100" fill="none" xmlns="http://www.w3.org/2000/svg">
<path d="M50 0C77.613 0 100 22.387 100 50C100 77.613 77.612 100 50 100C22.388 100 0 77.619 0 50C0 22.381 22.384 0 50 0Z" fill="#53AE94"/>
<path d="M56.1711 43.338V35.9H73.1801V24.567H26.864V35.9H43.875V43.332C30.05 43.967 19.655 46.705 19.655 49.985C19.655 53.265 30.055 56.003 43.875 56.642V80.467H56.1751V56.64C69.9751 56.003 80.3491 53.267 80.3491 49.99C80.3491 46.713 69.9751 43.977 56.1751 43.34L56.1711 43.338ZM56.1751 54.622V54.616C55.828 54.638 54.045 54.745 50.075 54.745C46.901 54.745 44.668 54.655 43.881 54.614V54.624C31.667 54.083 22.55 51.956 22.55 49.411C22.55 46.866 31.668 44.742 43.881 44.2V52.505C44.681 52.56 46.969 52.695 50.127 52.695C53.92 52.695 55.8271 52.537 56.1771 52.505V44.2C68.3671 44.743 77.4631 46.872 77.4631 49.408C77.4631 51.944 68.3631 54.074 56.1771 54.617" fill="white"/>
<path d="M250 100C277.709 100 300 77.7085 300 50C300 22.2915 277.709 0 250 0C222.292 0 200 22.2915 200 50C200 77.7085 222.292 100 250 100Z" fill="#2775CA"/>
<path d="M263.75 57.9165C263.75 50.625 259.375 48.125 250.625 47.0835C244.375 46.25 243.125 44.5835 243.125 41.6665C243.125 38.7495 245.208 36.875 249.375 36.875C253.125 36.875 255.208 38.125 256.25 41.25C256.458 41.875 257.083 42.2915 257.708 42.2915H261.041C261.875 42.2915 262.5 41.6665 262.5 40.8335V40.625C261.666 36.0415 257.916 32.5 253.125 32.0835V27.0835C253.125 26.25 252.5 25.625 251.458 25.4165H248.333C247.5 25.4165 246.875 26.0415 246.666 27.0835V31.875C240.416 32.7085 236.458 36.875 236.458 42.0835C236.458 48.9585 240.625 51.6665 249.375 52.7085C255.208 53.75 257.083 55 257.083 58.3335C257.083 61.667 254.166 63.9585 250.208 63.9585C244.791 63.9585 242.916 61.6665 242.291 58.5415C242.083 57.7085 241.458 57.2915 240.833 57.2915H237.291C236.458 57.2915 235.833 57.9165 235.833 58.75V58.9585C236.666 64.1665 240 67.9165 246.875 68.9585V73.9585C246.875 74.7915 247.5 75.4165 248.541 75.625H251.666C252.5 75.625 253.125 75 253.333 73.9585V68.9585C259.583 67.9165 263.75 63.5415 263.75 57.9165V57.9165Z" fill="white"/>
<path d="M239.375 79.7916C223.125 73.9586 214.791 55.8335 220.833 39.7915C223.958 31.0415 230.833 24.375 239.375 21.25C240.208 20.8335 240.625 20.2085 240.625 19.1665V16.25C240.625 15.4165 240.208 14.7915 239.375 14.5835C239.166 14.5835 238.75 14.5835 238.541 14.7915C218.75 21.0415 207.916 42.0835 214.166 61.8751C217.916 73.5416 226.875 82.5001 238.541 86.2501C239.375 86.6666 240.208 86.2501 240.416 85.4166C240.625 85.2086 240.625 85.0001 240.625 84.5836V81.6666C240.625 81.0416 240 80.2086 239.375 79.7916ZM261.458 14.7915C260.625 14.375 259.791 14.7915 259.583 15.625C259.375 15.8335 259.375 16.0415 259.375 16.4585V19.375C259.375 20.2085 260 21.0415 260.625 21.4585C276.875 27.2915 285.208 45.4165 279.166 61.4586C276.041 70.2086 269.166 76.8751 260.625 80.0001C259.791 80.4166 259.375 81.0416 259.375 82.0836V85.0001C259.375 85.8336 259.791 86.4586 260.625 86.6666C260.833 86.6666 261.25 86.6666 261.458 86.4586C281.25 80.2086 292.083 59.1665 285.833 39.375C282.083 27.5 272.916 18.5415 261.458 14.7915V14.7915Z" fill="white"/>
<path d="M164.111 32.2222H186.333V10" stroke="white" stroke-width="6" stroke-linecap="round" stroke-linejoin="round"/>
<path d="M186.333 32.2222C173.726 17.4074 161.133 10 148.556 10C135.978 10 124.867 14.4444 115.222 23.3333" stroke="white" stroke-width="6" stroke-linecap="round" stroke-linejoin="round"/>
<path d="M135.222 67.7778H113V90" stroke="white" stroke-width="6" stroke-linecap="round" stroke-linejoin="round"/>
<path d="M113 67.7778C125.607 82.5926 138.2 90 150.778 90C163.356 90 174.467 85.5556 184.111 76.6667" stroke="white" stroke-width="6" stroke-linecap="round" stroke-linejoin="round"/>
</svg>
